<?xml version="1.0" standalone="no"?>
<!DOCTYPE svg PUBLIC "-//W3C//DTD SVG 20010904//EN"
 "http://www.w3.org/TR/2001/REC-SVG-20010904/DTD/svg10.dtd">
<svg version="1.0" xmlns="http://www.w3.org/2000/svg"
 width="160.000000pt" height="160.000000pt" viewBox="0 0 160.000000 160.000000"
 preserveAspectRatio="xMidYMid meet">
<metadata>
Created by potrace 1.14, written by Peter Selinger 2001-2017
</metadata>
<g transform="translate(0.000000,160.000000) scale(0.100000,-0.100000)"
fill="#000000" stroke="none">
<path d="M260 795 l0 -795 540 0 540 0 0 795 0 795 -540 0 -540 0 0 -795z
m679 461 c13 -16 10 -19 -39 -35 -21 -6 -43 -23 -53 -40 -26 -45 -20 -54 17
-26 39 30 82 31 100 2 15 -24 -8 -64 -59 -99 -33 -23 -45 -26 -70 -20 -45 13
-54 50 -28 112 l21 50 -29 0 c-18 0 -32 7 -39 20 -10 19 -8 20 32 21 24 0 61
6 83 14 53 17 51 17 64 1z m-241 -69 c9 -7 9 -13 1 -23 -20 -25 -44 -17 -45
15 -1 30 12 32 44 8z m5 -98 c-6 -30 -5 -31 18 -19 22 13 22 12 -4 -19 -25
-31 -27 -38 -27 -133 0 -88 -2 -99 -15 -88 -10 8 -15 31 -15 66 0 59 -9 67
-34 29 -19 -29 -31 -32 -40 -9 -4 11 7 30 34 56 25 25 40 50 40 65 0 22 -3 24
-29 18 -17 -3 -40 -1 -52 5 -21 12 -19 14 32 35 30 13 64 23 76 24 20 1 22 -3
16 -30z m284 -91 c42 -40 24 -111 -48 -190 -37 -42 -39 -42 -45 -20 -5 18 -12
22 -28 17 -58 -17 -86 -18 -86 -2 0 8 -7 17 -14 20 -15 6 -29 50 -40 121 -5
39 -5 40 14 20 11 -10 24 -41 29 -68 11 -59 33 -85 55 -66 23 18 20 48 -6 56
-21 6 -21 7 6 21 39 21 30 47 -19 54 -22 3 -30 7 -18 8 12 0 43 12 69 26 58
31 100 32 131 3z"/>
<path d="M863 1129 c-18 -12 -33 -26 -33 -33 0 -14 20 -36 32 -36 7 0 58 74
58 85 0 11 -27 4 -57 -16z"/>
<path d="M893 983 c-41 -20 -41 -26 -3 -40 28 -11 42 -33 20 -33 -11 0 -43
-70 -35 -78 9 -9 73 58 86 89 9 24 9 33 -5 54 -19 29 -20 29 -63 8z"/>
</g>
</svg>
